STARTFONT 2.1
FONT -misc-Darn-Medium-I-Normal--15-150-72-72-C-70-ISO10646-1
SIZE 15 72 72
FONTBOUNDINGBOX 19 17 -7 -4
STARTPROPERTIES 17
FAMILY_NAME "Darn"
WEIGHT_NAME "Medium"
SLANT "I"
SETWIDTH_NAME "Normal"
FONT_NAME "DarnObliqueMedium"
FACE_NAME "Darn Oblique Medium"
FONT_VERSION "000.100"
COPYRIGHT "Copyright (c) 2020, Gabriel Holodak"
PIXEL_SIZE 15
POINT_SIZE 150
RESOLUTION_X 72
RESOLUTION_Y 72
AVERAGE_WIDTH 70
FONT_ASCENT 12
FONT_DESCENT 3
CAP_HEIGHT 9
X_HEIGHT 7
ENDPROPERTIES
CHARS 294
STARTCHAR U+0020
ENCODING 32
SWIDTH 368 0
DWIDTH 7 0
BBX 0 0 0 0
BITMAP
ENDCHAR
STARTCHAR U+0021
ENCODING 33
SWIDTH 368 0
DWIDTH 7 0
BBX 4 9 2 0
BITMAP
10
10
20
20
40
40
00
80
80
ENDCHAR
STARTCHAR U+0022
ENCODING 34
SWIDTH 368 0
DWIDTH 7 0
BBX 6 3 3 7
BITMAP
24
48
90
ENDCHAR
STARTCHAR U+0023
ENCODING 35
SWIDTH 368 0
DWIDTH 7 0
BBX 8 9 0 0
BITMAP
0A
0A
3F
14
24
28
FC
50
50
ENDCHAR
STARTCHAR U+0024
ENCODING 36
SWIDTH 368 0
DWIDTH 7 0
BBX 8 11 0 -1
BITMAP
02
0E
15
24
28
18
14
24
A8
70
40
ENDCHAR
STARTCHAR U+0025
ENCODING 37
SWIDTH 368 0
DWIDTH 7 0
BBX 9 9 -1 0
BITMAP
0880
1500
2A00
1400
0800
1400
2A00
5400
8800
ENDCHAR
STARTCHAR U+0026
ENCODING 38
SWIDTH 368 0
DWIDTH 7 0
BBX 8 9 -1 0
BITMAP
06
09
09
0E
38
4A
8C
88
74
ENDCHAR
STARTCHAR U+0027
ENCODING 39
SWIDTH 368 0
DWIDTH 7 0
BBX 3 3 4 7
BITMAP
20
40
80
ENDCHAR
STARTCHAR U+0028
ENCODING 40
SWIDTH 368 0
DWIDTH 7 0
BBX 6 11 2 -1
BITMAP
04
08
10
20
40
40
80
80
80
80
40
ENDCHAR
STARTCHAR U+0029
ENCODING 41
SWIDTH 368 0
DWIDTH 7 0
BBX 6 11 0 -1
BITMAP
08
04
04
04
04
08
08
10
20
40
80
ENDCHAR
STARTCHAR U+002A
ENCODING 42
SWIDTH 368 0
DWIDTH 7 0
BBX 6 5 1 2
BITMAP
10
54
78
A8
20
ENDCHAR
STARTCHAR U+002B
ENCODING 43
SWIDTH 368 0
DWIDTH 7 0
BBX 6 5 1 2
BITMAP
10
10
FC
20
20
ENDCHAR
STARTCHAR U+002C
ENCODING 44
SWIDTH 368 0
DWIDTH 7 0
BBX 3 4 0 -2
BITMAP
20
20
40
80
ENDCHAR
STARTCHAR U+002D
ENCODING 45
SWIDTH 368 0
DWIDTH 7 0
BBX 4 1 2 4
BITMAP
F0
ENDCHAR
STARTCHAR U+002E
ENCODING 46
SWIDTH 368 0
DWIDTH 7 0
BBX 1 2 2 0
BITMAP
80
80
ENDCHAR
STARTCHAR U+002F
ENCODING 47
SWIDTH 368 0
DWIDTH 7 0
BBX 10 10 -1 0
BITMAP
0040
0080
0100
0200
0400
0800
1000
2000
4000
8000
ENDCHAR
STARTCHAR U+0030
ENCODING 48
SWIDTH 368 0
DWIDTH 7 0
BBX 8 9 0 0
BITMAP
0E
11
21
26
5A
64
84
88
70
ENDCHAR
STARTCHAR U+0031
ENCODING 49
SWIDTH 368 0
DWIDTH 7 0
BBX 6 9 0 0
BITMAP
0C
14
28
08
10
10
20
20
F8
ENDCHAR
STARTCHAR U+0032
ENCODING 50
SWIDTH 368 0
DWIDTH 7 0
BBX 8 9 0 0
BITMAP
0E
11
01
06
18
20
40
80
F8
ENDCHAR
STARTCHAR U+0033
ENCODING 51
SWIDTH 368 0
DWIDTH 7 0
BBX 8 9 0 0
BITMAP
0E
11
01
02
0C
04
04
88
70
ENDCHAR
STARTCHAR U+0034
ENCODING 52
SWIDTH 368 0
DWIDTH 7 0
BBX 7 9 1 0
BITMAP
0E
12
24
44
88
FC
08
10
10
ENDCHAR
STARTCHAR U+0035
ENCODING 53
SWIDTH 368 0
DWIDTH 7 0
BBX 8 9 0 0
BITMAP
0F
10
10
20
38
04
04
88
70
ENDCHAR
STARTCHAR U+0036
ENCODING 54
SWIDTH 368 0
DWIDTH 7 0
BBX 8 9 0 0
BITMAP
0E
11
20
20
78
44
84
88
70
ENDCHAR
STARTCHAR U+0037
ENCODING 55
SWIDTH 368 0
DWIDTH 7 0
BBX 6 9 2 0
BITMAP
7C
04
08
10
20
40
40
80
80
ENDCHAR
STARTCHAR U+0038
ENCODING 56
SWIDTH 368 0
DWIDTH 7 0
BBX 8 9 0 0
BITMAP
0E
11
21
22
3C
44
84
88
70
ENDCHAR
STARTCHAR U+0039
ENCODING 57
SWIDTH 368 0
DWIDTH 7 0
BBX 8 9 0 0
BITMAP
0E
11
21
22
1E
04
04
88
70
ENDCHAR
STARTCHAR U+003A
ENCODING 58
SWIDTH 368 0
DWIDTH 7 0
BBX 3 6 2 1
BITMAP
20
20
00
00
80
80
ENDCHAR
STARTCHAR U+003B
ENCODING 59
SWIDTH 368 0
DWIDTH 7 0
BBX 5 9 0 -2
BITMAP
08
08
00
00
00
20
20
40
80
ENDCHAR
STARTCHAR U+003C
ENCODING 60
SWIDTH 368 0
DWIDTH 7 0
BBX 7 9 1 0
BITMAP
02
0C
30
40
80
40
40
20
20
ENDCHAR
STARTCHAR U+003D
ENCODING 61
SWIDTH 368 0
DWIDTH 7 0
BBX 7 5 0 2
BITMAP
3E
00
00
00
F8
ENDCHAR
STARTCHAR U+003E
ENCODING 62
SWIDTH 368 0
DWIDTH 7 0
BBX 7 9 -1 0
BITMAP
08
08
04
04
02
04
18
60
80
ENDCHAR
STARTCHAR U+003F
ENCODING 63
SWIDTH 368 0
DWIDTH 7 0
BBX 6 9 2 0
BITMAP
38
44
84
08
30
40
00
80
80
ENDCHAR
STARTCHAR U+0040
ENCODING 64
SWIDTH 368 0
DWIDTH 7 0
BBX 8 9 0 0
BITMAP
0E
11
25
2A
52
54
9C
80
78
ENDCHAR
STARTCHAR U+0041
ENCODING 65
SWIDTH 368 0
DWIDTH 7 0
BBX 7 9 0 0
BITMAP
02
06
0A
12
22
7C
44
88
88
ENDCHAR
STARTCHAR U+0042
ENCODING 66
SWIDTH 368 0
DWIDTH 7 0
BBX 8 9 0 0
BITMAP
1E
11
21
22
3C
44
44
88
F0
ENDCHAR
STARTCHAR U+0043
ENCODING 67
SWIDTH 368 0
DWIDTH 7 0
BBX 8 9 0 0
BITMAP
0E
11
20
20
40
40
80
88
70
ENDCHAR
STARTCHAR U+0044
ENCODING 68
SWIDTH 368 0
DWIDTH 7 0
BBX 8 9 -1 0
BITMAP
0E
09
11
11
21
22
42
44
F8
ENDCHAR
STARTCHAR U+0045
ENCODING 69
SWIDTH 368 0
DWIDTH 7 0
BBX 8 9 0 0
BITMAP
1F
10
20
20
3C
40
40
80
F8
ENDCHAR
STARTCHAR U+0046
ENCODING 70
SWIDTH 368 0
DWIDTH 7 0
BBX 8 9 0 0
BITMAP
1F
10
20
20
3C
40
40
80
80
ENDCHAR
STARTCHAR U+0047
ENCODING 71
SWIDTH 368 0
DWIDTH 7 0
BBX 8 9 0 0
BITMAP
0E
11
20
20
4C
44
84
88
70
ENDCHAR
STARTCHAR U+0048
ENCODING 72
SWIDTH 368 0
DWIDTH 7 0
BBX 8 9 0 0
BITMAP
11
11
22
22
3C
44
44
88
88
ENDCHAR
STARTCHAR U+0049
ENCODING 73
SWIDTH 368 0
DWIDTH 7 0
BBX 8 9 0 0
BITMAP
1F
04
08
08
10
10
20
20
F8
ENDCHAR
STARTCHAR U+004A
ENCODING 74
SWIDTH 368 0
DWIDTH 7 0
BBX 8 9 0 0
BITMAP
07
01
02
02
04
04
88
88
70
ENDCHAR
STARTCHAR U+004B
ENCODING 75
SWIDTH 368 0
DWIDTH 7 0
BBX 8 9 0 0
BITMAP
11
12
24
28
30
48
48
88
88
ENDCHAR
STARTCHAR U+004C
ENCODING 76
SWIDTH 368 0
DWIDTH 7 0
BBX 5 9 0 0
BITMAP
10
10
20
20
20
40
40
80
F8
ENDCHAR
STARTCHAR U+004D
ENCODING 77
SWIDTH 368 0
DWIDTH 7 0
BBX 8 9 0 0
BITMAP
11
13
36
2A
54
54
44
88
88
ENDCHAR
STARTCHAR U+004E
ENCODING 78
SWIDTH 368 0
DWIDTH 7 0
BBX 8 9 0 0
BITMAP
11
11
32
2A
4A
44
44
88
88
ENDCHAR
STARTCHAR U+004F
ENCODING 79
SWIDTH 368 0
DWIDTH 7 0
BBX 8 9 0 0
BITMAP
0E
11
21
22
42
44
84
88
70
ENDCHAR
STARTCHAR U+0050
ENCODING 80
SWIDTH 368 0
DWIDTH 7 0
BBX 8 9 0 0
BITMAP
0E
11
11
22
3C
40
40
80
80
ENDCHAR
STARTCHAR U+0051
ENCODING 81
SWIDTH 368 0
DWIDTH 7 0
BBX 8 10 0 -1
BITMAP
0E
11
21
22
42
44
A4
D8
70
08
ENDCHAR
STARTCHAR U+0052
ENCODING 82
SWIDTH 368 0
DWIDTH 7 0
BBX 8 9 0 0
BITMAP
0E
11
11
22
3C
44
44
88
88
ENDCHAR
STARTCHAR U+0053
ENCODING 83
SWIDTH 368 0
DWIDTH 7 0
BBX 8 9 0 0
BITMAP
0E
11
20
20
18
04
04
88
70
ENDCHAR
STARTCHAR U+0054
ENCODING 84
SWIDTH 368 0
DWIDTH 7 0
BBX 6 9 2 0
BITMAP
7C
10
20
20
40
40
40
80
80
ENDCHAR
STARTCHAR U+0055
ENCODING 85
SWIDTH 368 0
DWIDTH 7 0
BBX 8 9 0 0
BITMAP
11
11
22
22
44
44
88
88
70
ENDCHAR
STARTCHAR U+0056
ENCODING 86
SWIDTH 368 0
DWIDTH 7 0
BBX 7 9 1 0
BITMAP
22
22
44
44
88
90
A0
C0
80
ENDCHAR
STARTCHAR U+0057
ENCODING 87
SWIDTH 368 0
DWIDTH 7 0
BBX 8 9 0 0
BITMAP
11
11
22
22
54
54
A8
A8
50
ENDCHAR
STARTCHAR U+0058
ENCODING 88
SWIDTH 368 0
DWIDTH 7 0
BBX 8 9 0 0
BITMAP
11
11
12
14
18
28
48
88
88
ENDCHAR
STARTCHAR U+0059
ENCODING 89
SWIDTH 368 0
DWIDTH 7 0
BBX 7 9 1 0
BITMAP
22
24
28
30
20
40
40
80
80
ENDCHAR
STARTCHAR U+005A
ENCODING 90
SWIDTH 368 0
DWIDTH 7 0
BBX 9 9 -1 0
BITMAP
0F80
0100
0200
0400
0800
1000
2000
4000
F800
ENDCHAR
STARTCHAR U+005B
ENCODING 91
SWIDTH 368 0
DWIDTH 7 0
BBX 8 11 0 -1
BITMAP
07
08
08
10
10
20
20
40
40
80
E0
ENDCHAR
STARTCHAR U+005C
ENCODING 92
SWIDTH 368 0
DWIDTH 7 0
BBX 2 10 3 0
BITMAP
80
80
80
80
80
40
40
40
40
40
ENDCHAR
STARTCHAR U+005D
ENCODING 93
SWIDTH 368 0
DWIDTH 7 0
BBX 8 11 0 -1
BITMAP
07
01
02
02
04
04
08
08
10
10
E0
ENDCHAR
STARTCHAR U+005E
ENCODING 94
SWIDTH 368 0
DWIDTH 7 0
BBX 5 3 3 7
BITMAP
20
50
88
ENDCHAR
STARTCHAR U+005F
ENCODING 95
SWIDTH 368 0
DWIDTH 7 0
BBX 6 1 -1 -1
BITMAP
FC
ENDCHAR
STARTCHAR U+0060
ENCODING 96
SWIDTH 368 0
DWIDTH 7 0
BBX 3 3 4 7
BITMAP
80
40
20
ENDCHAR
STARTCHAR U+0061
ENCODING 97
SWIDTH 368 0
DWIDTH 7 0
BBX 6 7 0 0
BITMAP
38
04
04
78
88
90
70
ENDCHAR
STARTCHAR U+0062
ENCODING 98
SWIDTH 368 0
DWIDTH 7 0
BBX 7 10 0 0
BITMAP
08
08
10
1C
22
22
44
44
88
F0
ENDCHAR
STARTCHAR U+0063
ENCODING 99
SWIDTH 368 0
DWIDTH 7 0
BBX 7 7 0 0
BITMAP
1C
22
40
40
80
88
70
ENDCHAR
STARTCHAR U+0064
ENCODING 100
SWIDTH 368 0
DWIDTH 7 0
BBX 8 10 0 0
BITMAP
01
01
02
1E
24
44
48
88
90
70
ENDCHAR
STARTCHAR U+0065
ENCODING 101
SWIDTH 368 0
DWIDTH 7 0
BBX 6 7 0 0
BITMAP
18
24
44
78
80
88
70
ENDCHAR
STARTCHAR U+0066
ENCODING 102
SWIDTH 368 0
DWIDTH 7 0
BBX 8 10 1 0
BITMAP
07
08
10
7C
20
20
40
40
80
80
ENDCHAR
STARTCHAR U+0067
ENCODING 103
SWIDTH 368 0
DWIDTH 7 0
BBX 8 10 -1 -3
BITMAP
0F
11
22
22
44
44
38
08
10
E0
ENDCHAR
STARTCHAR U+0068
ENCODING 104
SWIDTH 368 0
DWIDTH 7 0
BBX 7 10 0 0
BITMAP
08
08
10
1C
22
22
44
44
88
88
ENDCHAR
STARTCHAR U+0069
ENCODING 105
SWIDTH 368 0
DWIDTH 7 0
BBX 5 10 2 0
BITMAP
08
08
00
60
20
40
40
80
80
C0
ENDCHAR
STARTCHAR U+006A
ENCODING 106
SWIDTH 368 0
DWIDTH 7 0
BBX 8 12 -1 -2
BITMAP
01
01
00
06
02
04
04
08
08
10
10
E0
ENDCHAR
STARTCHAR U+006B
ENCODING 107
SWIDTH 368 0
DWIDTH 7 0
BBX 7 10 0 0
BITMAP
08
08
10
12
24
28
50
50
88
88
ENDCHAR
STARTCHAR U+006C
ENCODING 108
SWIDTH 368 0
DWIDTH 7 0
BBX 5 10 2 0
BITMAP
18
08
10
10
20
20
40
40
80
C0
ENDCHAR
STARTCHAR U+006D
ENCODING 109
SWIDTH 368 0
DWIDTH 7 0
BBX 7 7 0 0
BITMAP
14
2A
2A
54
54
A8
A8
ENDCHAR
STARTCHAR U+006E
ENCODING 110
SWIDTH 368 0
DWIDTH 7 0
BBX 7 7 0 0
BITMAP
1C
22
22
44
44
88
88
ENDCHAR
STARTCHAR U+006F
ENCODING 111
SWIDTH 368 0
DWIDTH 7 0
BBX 7 7 0 0
BITMAP
1C
22
42
44
84
88
70
ENDCHAR
STARTCHAR U+0070
ENCODING 112
SWIDTH 368 0
DWIDTH 7 0
BBX 8 10 -1 -3
BITMAP
0E
11
11
22
22
44
78
40
80
80
ENDCHAR
STARTCHAR U+0071
ENCODING 113
SWIDTH 368 0
DWIDTH 7 0
BBX 7 10 0 -3
BITMAP
1E
22
44
44
88
88
70
10
20
20
ENDCHAR
STARTCHAR U+0072
ENCODING 114
SWIDTH 368 0
DWIDTH 7 0
BBX 7 7 0 0
BITMAP
1C
22
22
40
40
80
80
ENDCHAR
STARTCHAR U+0073
ENCODING 115
SWIDTH 368 0
DWIDTH 7 0
BBX 7 7 0 0
BITMAP
1C
22
20
10
08
88
70
ENDCHAR
STARTCHAR U+0074
ENCODING 116
SWIDTH 368 0
DWIDTH 7 0
BBX 5 10 1 0
BITMAP
08
08
10
78
20
40
40
80
80
60
ENDCHAR
STARTCHAR U+0075
ENCODING 117
SWIDTH 368 0
DWIDTH 7 0
BBX 7 7 0 0
BITMAP
22
22
44
44
88
88
70
ENDCHAR
STARTCHAR U+0076
ENCODING 118
SWIDTH 368 0
DWIDTH 7 0
BBX 6 7 1 0
BITMAP
44
44
88
90
A0
C0
80
ENDCHAR
STARTCHAR U+0077
ENCODING 119
SWIDTH 368 0
DWIDTH 7 0
BBX 7 7 1 0
BITMAP
42
42
84
A4
A8
D0
A0
ENDCHAR
STARTCHAR U+0078
ENCODING 120
SWIDTH 368 0
DWIDTH 7 0
BBX 7 7 0 0
BITMAP
22
24
18
10
30
48
88
ENDCHAR
STARTCHAR U+0079
ENCODING 121
SWIDTH 368 0
DWIDTH 7 0
BBX 8 10 -1 -3
BITMAP
11
11
22
22
44
44
38
08
10
E0
ENDCHAR
STARTCHAR U+007A
ENCODING 122
SWIDTH 368 0
DWIDTH 7 0
BBX 7 7 0 0
BITMAP
3E
04
08
10
20
40
F8
ENDCHAR
STARTCHAR U+007B
ENCODING 123
SWIDTH 368 0
DWIDTH 7 0
BBX 7 11 1 -1
BITMAP
06
08
08
08
10
60
20
20
40
80
60
ENDCHAR
STARTCHAR U+007C
ENCODING 124
SWIDTH 368 0
DWIDTH 7 0
BBX 6 12 1 -1
BITMAP
04
04
08
08
10
10
20
20
40
40
80
80
ENDCHAR
STARTCHAR U+007D
ENCODING 125
SWIDTH 368 0
DWIDTH 7 0
BBX 7 11 0 -1
BITMAP
0C
02
04
08
08
0C
10
20
20
20
C0
ENDCHAR
STARTCHAR U+007E
ENCODING 126
SWIDTH 368 0
DWIDTH 7 0
BBX 6 2 1 4
BITMAP
64
98
ENDCHAR
STARTCHAR U+00A0
ENCODING 160
SWIDTH 368 0
DWIDTH 7 0
BBX 0 0 0 0
BITMAP
ENDCHAR
STARTCHAR U+00A1
ENCODING 161
SWIDTH 368 0
DWIDTH 7 0
BBX 4 9 1 -2
BITMAP
10
10
00
20
20
40
40
80
80
ENDCHAR
STARTCHAR U+00A2
ENCODING 162
SWIDTH 368 0
DWIDTH 7 0
BBX 7 9 0 -1
BITMAP
04
1C
2A
50
50
A0
A8
70
40
ENDCHAR
STARTCHAR U+00A3
ENCODING 163
SWIDTH 368 0
DWIDTH 7 0
BBX 8 9 0 0
BITMAP
06
09
08
10
78
20
40
80
F8
ENDCHAR
STARTCHAR U+00A4
ENCODING 164
SWIDTH 368 0
DWIDTH 7 0
BBX 7 6 0 1
BITMAP
5A
24
44
44
48
B4
ENDCHAR
STARTCHAR U+00A5
ENCODING 165
SWIDTH 368 0
DWIDTH 7 0
BBX 8 9 0 0
BITMAP
11
12
14
18
7C
20
F8
40
40
ENDCHAR
STARTCHAR U+00A6
ENCODING 166
SWIDTH 368 0
DWIDTH 7 0
BBX 6 12 1 -1
BITMAP
04
04
08
08
10
00
00
20
40
40
80
80
ENDCHAR
STARTCHAR U+00A7
ENCODING 167
SWIDTH 368 0
DWIDTH 7 0
BBX 9 11 -1 -2
BITMAP
0300
0480
0800
1800
2400
2200
1200
0C00
0800
9000
6000
ENDCHAR
STARTCHAR U+00A8
ENCODING 168
SWIDTH 368 0
DWIDTH 7 0
BBX 3 1 5 10
BITMAP
A0
ENDCHAR
STARTCHAR U+00A9
ENCODING 169
SWIDTH 368 0
DWIDTH 7 0
BBX 7 9 0 0
BITMAP
18
24
52
AA
A2
AA
94
48
30
ENDCHAR
STARTCHAR U+00AA
ENCODING 170
SWIDTH 368 0
DWIDTH 7 0
BBX 6 7 1 2
BITMAP
18
04
38
48
30
00
F0
ENDCHAR
STARTCHAR U+00AB
ENCODING 171
SWIDTH 368 0
DWIDTH 7 0
BBX 5 5 1 1
BITMAP
28
50
A0
A0
A0
ENDCHAR
STARTCHAR U+00AC
ENCODING 172
SWIDTH 368 0
DWIDTH 7 0
BBX 5 3 1 2
BITMAP
F8
08
10
ENDCHAR
STARTCHAR U+00AD
ENCODING 173
SWIDTH 368 0
DWIDTH 7 0
BBX 4 1 2 4
BITMAP
F0
ENDCHAR
STARTCHAR U+00AE
ENCODING 174
SWIDTH 368 0
DWIDTH 7 0
BBX 7 9 0 0
BITMAP
18
24
5A
AA
B2
AA
AC
48
30
ENDCHAR
STARTCHAR U+00AF
ENCODING 175
SWIDTH 368 0
DWIDTH 7 0
BBX 3 1 5 10
BITMAP
E0
ENDCHAR
STARTCHAR U+00B0
ENCODING 176
SWIDTH 368 0
DWIDTH 7 0
BBX 4 4 4 6
BITMAP
60
90
90
60
ENDCHAR
STARTCHAR U+00B1
ENCODING 177
SWIDTH 368 0
DWIDTH 7 0
BBX 8 7 -1 0
BITMAP
04
04
3F
08
08
00
FC
ENDCHAR
STARTCHAR U+00B2
ENCODING 178
SWIDTH 368 0
DWIDTH 7 0
BBX 5 5 3 5
BITMAP
30
48
30
40
F0
ENDCHAR
STARTCHAR U+00B3
ENCODING 179
SWIDTH 368 0
DWIDTH 7 0
BBX 5 5 3 5
BITMAP
70
08
30
10
E0
ENDCHAR
STARTCHAR U+00B4
ENCODING 180
SWIDTH 368 0
DWIDTH 7 0
BBX 2 2 6 10
BITMAP
40
80
ENDCHAR
STARTCHAR U+00B5
ENCODING 181
SWIDTH 368 0
DWIDTH 7 0
BBX 9 10 -2 -3
BITMAP
0880
0880
1100
1100
2200
2200
5E00
4000
8000
8000
ENDCHAR
STARTCHAR U+00B6
ENCODING 182
SWIDTH 368 0
DWIDTH 7 0
BBX 7 11 1 -2
BITMAP
1E
3A
74
74
28
28
50
50
50
A0
A0
ENDCHAR
STARTCHAR U+00B7
ENCODING 183
SWIDTH 368 0
DWIDTH 7 0
BBX 1 2 3 3
BITMAP
80
80
ENDCHAR
STARTCHAR U+00B8
ENCODING 184
SWIDTH 368 0
DWIDTH 7 0
BBX 3 3 0 -3
BITMAP
40
20
C0
ENDCHAR
STARTCHAR U+00B9
ENCODING 185
SWIDTH 368 0
DWIDTH 7 0
BBX 3 5 4 5
BITMAP
60
A0
40
40
E0
ENDCHAR
STARTCHAR U+00BA
ENCODING 186
SWIDTH 368 0
DWIDTH 7 0
BBX 6 7 1 2
BITMAP
18
24
44
48
30
00
F0
ENDCHAR
STARTCHAR U+00BB
ENCODING 187
SWIDTH 368 0
DWIDTH 7 0
BBX 5 5 1 1
BITMAP
28
28
28
50
A0
ENDCHAR
STARTCHAR U+00BC
ENCODING 188
SWIDTH 368 0
DWIDTH 7 0
BBX 6 10 1 0
BITMAP
10
30
10
24
68
34
58
A8
78
10
ENDCHAR
STARTCHAR U+00BD
ENCODING 189
SWIDTH 368 0
DWIDTH 7 0
BBX 6 10 1 0
BITMAP
10
30
10
24
78
28
54
88
10
38
ENDCHAR
STARTCHAR U+00BE
ENCODING 190
SWIDTH 368 0
DWIDTH 7 0
BBX 6 10 1 0
BITMAP
30
08
30
14
68
34
58
A8
78
10
ENDCHAR
STARTCHAR U+00BF
ENCODING 191
SWIDTH 368 0
DWIDTH 7 0
BBX 6 9 -1 -2
BITMAP
04
04
00
08
30
40
84
88
70
ENDCHAR
STARTCHAR U+00C0
ENCODING 192
SWIDTH 368 0
DWIDTH 7 0
BBX 7 12 0 0
BITMAP
04
02
00
02
06
0A
12
22
7C
44
88
88
ENDCHAR
STARTCHAR U+00C1
ENCODING 193
SWIDTH 368 0
DWIDTH 7 0
BBX 8 12 0 0
BITMAP
01
02
00
02
06
0A
12
22
7C
44
88
88
ENDCHAR
STARTCHAR U+00C2
ENCODING 194
SWIDTH 368 0
DWIDTH 7 0
BBX 8 12 0 0
BITMAP
02
05
00
02
06
0A
12
22
7C
44
88
88
ENDCHAR
STARTCHAR U+00C3
ENCODING 195
SWIDTH 368 0
DWIDTH 7 0
BBX 9 12 0 0
BITMAP
0280
0500
0000
0200
0600
0A00
1200
2200
7C00
4400
8800
8800
ENDCHAR
STARTCHAR U+00C4
ENCODING 196
SWIDTH 368 0
DWIDTH 7 0
BBX 8 11 0 0
BITMAP
05
00
02
06
0A
12
22
7C
44
88
88
ENDCHAR
STARTCHAR U+00C5
ENCODING 197
SWIDTH 368 0
DWIDTH 7 0
BBX 8 11 0 0
BITMAP
02
05
02
06
0A
12
22
7C
44
88
88
ENDCHAR
STARTCHAR U+00C6
ENCODING 198
SWIDTH 368 0
DWIDTH 7 0
BBX 8 9 0 0
BITMAP
07
0C
18
28
5C
70
50
A0
B8
ENDCHAR
STARTCHAR U+00C7
ENCODING 199
SWIDTH 368 0
DWIDTH 7 0
BBX 8 12 0 -3
BITMAP
0E
11
20
20
40
40
80
88
70
40
20
C0
ENDCHAR
STARTCHAR U+00C8
ENCODING 200
SWIDTH 368 0
DWIDTH 7 0
BBX 8 12 0 0
BITMAP
04
02
00
1F
10
20
20
3C
40
40
80
F8
ENDCHAR
STARTCHAR U+00C9
ENCODING 201
SWIDTH 368 0
DWIDTH 7 0
BBX 8 12 0 0
BITMAP
01
02
00
1F
10
20
20
3C
40
40
80
F8
ENDCHAR
STARTCHAR U+00CA
ENCODING 202
SWIDTH 368 0
DWIDTH 7 0
BBX 8 12 0 0
BITMAP
02
05
00
1F
10
20
20
3C
40
40
80
F8
ENDCHAR
STARTCHAR U+00CB
ENCODING 203
SWIDTH 368 0
DWIDTH 7 0
BBX 8 11 0 0
BITMAP
05
00
1F
10
20
20
3C
40
40
80
F8
ENDCHAR
STARTCHAR U+00CC
ENCODING 204
SWIDTH 368 0
DWIDTH 7 0
BBX 8 12 0 0
BITMAP
04
02
00
1F
04
08
08
10
10
20
20
F8
ENDCHAR
STARTCHAR U+00CD
ENCODING 205
SWIDTH 368 0
DWIDTH 7 0
BBX 8 12 0 0
BITMAP
01
02
00
1F
04
08
08
10
10
20
20
F8
ENDCHAR
STARTCHAR U+00CE
ENCODING 206
SWIDTH 368 0
DWIDTH 7 0
BBX 8 12 0 0
BITMAP
02
05
00
1F
04
08
08
10
10
20
20
F8
ENDCHAR
STARTCHAR U+00CF
ENCODING 207
SWIDTH 368 0
DWIDTH 7 0
BBX 8 11 0 0
BITMAP
05
00
1F
04
08
08
10
10
20
20
F8
ENDCHAR
STARTCHAR U+00D0
ENCODING 208
SWIDTH 368 0
DWIDTH 7 0
BBX 8 9 -1 0
BITMAP
0E
09
11
11
79
22
42
44
F8
ENDCHAR
STARTCHAR U+00D1
ENCODING 209
SWIDTH 368 0
DWIDTH 7 0
BBX 9 12 0 0
BITMAP
0280
0500
0000
1100
1100
3200
2A00
4A00
4400
4400
8800
8800
ENDCHAR
STARTCHAR U+00D2
ENCODING 210
SWIDTH 368 0
DWIDTH 7 0
BBX 8 12 0 0
BITMAP
04
02
00
0E
11
21
22
42
44
84
88
70
ENDCHAR
STARTCHAR U+00D3
ENCODING 211
SWIDTH 368 0
DWIDTH 7 0
BBX 8 12 0 0
BITMAP
01
02
00
0E
11
21
22
42
44
84
88
70
ENDCHAR
STARTCHAR U+00D4
ENCODING 212
SWIDTH 368 0
DWIDTH 7 0
BBX 8 12 0 0
BITMAP
02
05
00
0E
11
21
22
42
44
84
88
70
ENDCHAR
STARTCHAR U+00D5
ENCODING 213
SWIDTH 368 0
DWIDTH 7 0
BBX 9 12 0 0
BITMAP
0280
0500
0000
0E00
1100
2100
2200
4200
4400
8400
8800
7000
ENDCHAR
STARTCHAR U+00D6
ENCODING 214
SWIDTH 368 0
DWIDTH 7 0
BBX 8 11 0 0
BITMAP
05
00
0E
11
21
22
42
44
84
88
70
ENDCHAR
STARTCHAR U+00D7
ENCODING 215
SWIDTH 368 0
DWIDTH 7 0
BBX 6 5 1 2
BITMAP
24
28
30
50
90
ENDCHAR
STARTCHAR U+00D8
ENCODING 216
SWIDTH 368 0
DWIDTH 7 0
BBX 11 11 -1 -1
BITMAP
0020
0740
0880
0980
1280
1500
2900
3200
2200
5C00
8000
ENDCHAR
STARTCHAR U+00D9
ENCODING 217
SWIDTH 368 0
DWIDTH 7 0
BBX 8 12 0 0
BITMAP
04
02
00
11
11
22
22
44
44
88
88
70
ENDCHAR
STARTCHAR U+00DA
ENCODING 218
SWIDTH 368 0
DWIDTH 7 0
BBX 8 12 0 0
BITMAP
01
02
00
11
11
22
22
44
44
88
88
70
ENDCHAR
STARTCHAR U+00DB
ENCODING 219
SWIDTH 368 0
DWIDTH 7 0
BBX 8 12 0 0
BITMAP
02
05
00
11
11
22
22
44
44
88
88
70
ENDCHAR
STARTCHAR U+00DC
ENCODING 220
SWIDTH 368 0
DWIDTH 7 0
BBX 8 11 0 0
BITMAP
05
00
11
11
22
22
44
44
88
88
70
ENDCHAR
STARTCHAR U+00DD
ENCODING 221
SWIDTH 368 0
DWIDTH 7 0
BBX 7 12 1 0
BITMAP
02
04
00
22
24
28
30
20
40
40
80
80
ENDCHAR
STARTCHAR U+00DE
ENCODING 222
SWIDTH 368 0
DWIDTH 7 0
BBX 7 9 0 0
BITMAP
10
10
1C
22
22
44
78
80
80
ENDCHAR
STARTCHAR U+00DF
ENCODING 223
SWIDTH 368 0
DWIDTH 7 0
BBX 7 9 0 0
BITMAP
0C
12
12
24
28
44
44
88
B0
ENDCHAR
STARTCHAR U+00E0
ENCODING 224
SWIDTH 368 0
DWIDTH 7 0
BBX 6 10 0 0
BITMAP
08
04
00
38
04
04
78
88
90
70
ENDCHAR
STARTCHAR U+00E1
ENCODING 225
SWIDTH 368 0
DWIDTH 7 0
BBX 7 10 0 0
BITMAP
02
04
00
38
04
04
78
88
90
70
ENDCHAR
STARTCHAR U+00E2
ENCODING 226
SWIDTH 368 0
DWIDTH 7 0
BBX 7 10 0 0
BITMAP
04
0A
00
38
04
04
78
88
90
70
ENDCHAR
STARTCHAR U+00E3
ENCODING 227
SWIDTH 368 0
DWIDTH 7 0
BBX 8 10 0 0
BITMAP
05
0A
00
38
04
04
78
88
90
70
ENDCHAR
STARTCHAR U+00E4
ENCODING 228
SWIDTH 368 0
DWIDTH 7 0
BBX 7 9 0 0
BITMAP
0A
00
38
04
04
78
88
90
70
ENDCHAR
STARTCHAR U+00E5
ENCODING 229
SWIDTH 368 0
DWIDTH 7 0
BBX 7 10 0 0
BITMAP
04
0A
04
38
04
04
78
88
90
70
ENDCHAR
STARTCHAR U+00E6
ENCODING 230
SWIDTH 368 0
DWIDTH 7 0
BBX 6 7 0 0
BITMAP
28
54
14
78
A0
A8
50
ENDCHAR
STARTCHAR U+00E7
ENCODING 231
SWIDTH 368 0
DWIDTH 7 0
BBX 7 10 0 -3
BITMAP
1C
22
40
40
80
88
70
40
20
C0
ENDCHAR
STARTCHAR U+00E8
ENCODING 232
SWIDTH 368 0
DWIDTH 7 0
BBX 6 10 0 0
BITMAP
08
04
00
18
24
44
78
80
88
70
ENDCHAR
STARTCHAR U+00E9
ENCODING 233
SWIDTH 368 0
DWIDTH 7 0
BBX 7 10 0 0
BITMAP
02
04
00
18
24
44
78
80
88
70
ENDCHAR
STARTCHAR U+00EA
ENCODING 234
SWIDTH 368 0
DWIDTH 7 0
BBX 7 10 0 0
BITMAP
04
0A
00
18
24
44
78
80
88
70
ENDCHAR
STARTCHAR U+00EB
ENCODING 235
SWIDTH 368 0
DWIDTH 7 0
BBX 7 9 0 0
BITMAP
0A
00
18
24
44
78
80
88
70
ENDCHAR
STARTCHAR U+00EC
ENCODING 236
SWIDTH 368 0
DWIDTH 7 0
BBX 4 10 2 0
BITMAP
20
10
00
60
20
40
40
80
80
C0
ENDCHAR
STARTCHAR U+00ED
ENCODING 237
SWIDTH 368 0
DWIDTH 7 0
BBX 5 10 2 0
BITMAP
08
10
00
60
20
40
40
80
80
C0
ENDCHAR
STARTCHAR U+00EE
ENCODING 238
SWIDTH 368 0
DWIDTH 7 0
BBX 5 10 2 0
BITMAP
10
28
00
60
20
40
40
80
80
C0
ENDCHAR
STARTCHAR U+00EF
ENCODING 239
SWIDTH 368 0
DWIDTH 7 0
BBX 5 9 2 0
BITMAP
28
00
60
20
40
40
80
80
C0
ENDCHAR
STARTCHAR U+00F0
ENCODING 240
SWIDTH 368 0
DWIDTH 7 0
BBX 8 10 0 0
BITMAP
09
06
0A
02
1A
24
44
88
90
60
ENDCHAR
STARTCHAR U+00F1
ENCODING 241
SWIDTH 368 0
DWIDTH 7 0
BBX 8 10 0 0
BITMAP
05
0A
00
1C
22
22
44
44
88
88
ENDCHAR
STARTCHAR U+00F2
ENCODING 242
SWIDTH 368 0
DWIDTH 7 0
BBX 7 10 0 0
BITMAP
08
04
00
1C
22
42
44
84
88
70
ENDCHAR
STARTCHAR U+00F3
ENCODING 243
SWIDTH 368 0
DWIDTH 7 0
BBX 7 10 0 0
BITMAP
02
04
00
1C
22
42
44
84
88
70
ENDCHAR
STARTCHAR U+00F4
ENCODING 244
SWIDTH 368 0
DWIDTH 7 0
BBX 7 10 0 0
BITMAP
04
0A
00
1C
22
42
44
84
88
70
ENDCHAR
STARTCHAR U+00F5
ENCODING 245
SWIDTH 368 0
DWIDTH 7 0
BBX 8 10 0 0
BITMAP
05
0A
00
1C
22
42
44
84
88
70
ENDCHAR
STARTCHAR U+00F6
ENCODING 246
SWIDTH 368 0
DWIDTH 7 0
BBX 7 9 0 0
BITMAP
0A
00
1C
22
42
44
84
88
70
ENDCHAR
STARTCHAR U+00F7
ENCODING 247
SWIDTH 368 0
DWIDTH 7 0
BBX 5 5 1 2
BITMAP
10
00
F8
00
40
ENDCHAR
STARTCHAR U+00F8
ENCODING 248
SWIDTH 368 0
DWIDTH 7 0
BBX 9 9 -1 -1
BITMAP
0080
0F00
1300
2500
2A00
5200
6400
7800
8000
ENDCHAR
STARTCHAR U+00F9
ENCODING 249
SWIDTH 368 0
DWIDTH 7 0
BBX 7 10 0 0
BITMAP
08
04
00
22
22
44
44
88
88
70
ENDCHAR
STARTCHAR U+00FA
ENCODING 250
SWIDTH 368 0
DWIDTH 7 0
BBX 7 10 0 0
BITMAP
02
04
00
22
22
44
44
88
88
70
ENDCHAR
STARTCHAR U+00FB
ENCODING 251
SWIDTH 368 0
DWIDTH 7 0
BBX 7 10 0 0
BITMAP
04
0A
00
22
22
44
44
88
88
70
ENDCHAR
STARTCHAR U+00FC
ENCODING 252
SWIDTH 368 0
DWIDTH 7 0
BBX 7 9 0 0
BITMAP
0A
00
22
22
44
44
88
88
70
ENDCHAR
STARTCHAR U+00FD
ENCODING 253
SWIDTH 368 0
DWIDTH 7 0
BBX 8 13 -1 -3
BITMAP
01
02
00
11
11
22
22
44
44
38
08
10
E0
ENDCHAR
STARTCHAR U+00FE
ENCODING 254
SWIDTH 368 0
DWIDTH 7 0
BBX 8 13 -1 -3
BITMAP
04
04
08
0E
11
11
22
22
44
78
40
80
80
ENDCHAR
STARTCHAR U+00FF
ENCODING 255
SWIDTH 368 0
DWIDTH 7 0
BBX 8 12 -1 -3
BITMAP
05
00
11
11
22
22
44
44
38
08
10
E0
ENDCHAR
STARTCHAR U+0131
ENCODING 305
SWIDTH 368 0
DWIDTH 7 0
BBX 3 7 2 0
BITMAP
60
20
40
40
80
80
C0
ENDCHAR
STARTCHAR U+0300
ENCODING 768
SWIDTH 0 0
DWIDTH 0 0
BBX 2 2 -2 10
BITMAP
80
40
ENDCHAR
STARTCHAR U+0301
ENCODING 769
SWIDTH 0 0
DWIDTH 0 0
BBX 2 2 -1 10
BITMAP
40
80
ENDCHAR
STARTCHAR U+0302
ENCODING 770
SWIDTH 0 0
DWIDTH 0 0
BBX 3 2 -2 10
BITMAP
40
A0
ENDCHAR
STARTCHAR U+0303
ENCODING 771
SWIDTH 0 0
DWIDTH 0 0
BBX 4 2 -2 10
BITMAP
50
A0
ENDCHAR
STARTCHAR U+0308
ENCODING 776
SWIDTH 0 0
DWIDTH 0 0
BBX 3 1 -2 10
BITMAP
A0
ENDCHAR
STARTCHAR U+030A
ENCODING 778
SWIDTH 0 0
DWIDTH 0 0
BBX 3 3 -2 9
BITMAP
40
A0
40
ENDCHAR
STARTCHAR U+0327
ENCODING 807
SWIDTH 0 0
DWIDTH 0 0
BBX 3 3 -7 -3
BITMAP
40
20
C0
ENDCHAR
STARTCHAR U+03BB
ENCODING 955
SWIDTH 368 0
DWIDTH 7 0
BBX 6 9 -1 0
BITMAP
18
04
04
04
08
18
28
48
84
ENDCHAR
STARTCHAR U+2010
ENCODING 8208
SWIDTH 368 0
DWIDTH 7 0
BBX 4 1 2 4
BITMAP
F0
ENDCHAR
STARTCHAR U+2011
ENCODING 8209
SWIDTH 368 0
DWIDTH 7 0
BBX 4 1 2 4
BITMAP
F0
ENDCHAR
STARTCHAR U+2012
ENCODING 8210
SWIDTH 368 0
DWIDTH 7 0
BBX 5 1 1 4
BITMAP
F8
ENDCHAR
STARTCHAR U+2013
ENCODING 8211
SWIDTH 368 0
DWIDTH 7 0
BBX 5 1 1 4
BITMAP
F8
ENDCHAR
STARTCHAR U+2014
ENCODING 8212
SWIDTH 368 0
DWIDTH 7 0
BBX 7 1 0 4
BITMAP
FE
ENDCHAR
STARTCHAR U+2015
ENCODING 8213
SWIDTH 368 0
DWIDTH 7 0
BBX 7 1 0 4
BITMAP
FE
ENDCHAR
STARTCHAR U+2018
ENCODING 8216
SWIDTH 368 0
DWIDTH 7 0
BBX 3 4 4 6
BITMAP
20
40
80
C0
ENDCHAR
STARTCHAR U+2019
ENCODING 8217
SWIDTH 368 0
DWIDTH 7 0
BBX 3 4 3 6
BITMAP
60
20
40
80
ENDCHAR
STARTCHAR U+201A
ENCODING 8218
SWIDTH 368 0
DWIDTH 7 0
BBX 3 4 0 -2
BITMAP
60
20
40
80
ENDCHAR
STARTCHAR U+201B
ENCODING 8219
SWIDTH 368 0
DWIDTH 7 0
BBX 3 4 5 6
BITMAP
60
40
80
80
ENDCHAR
STARTCHAR U+201C
ENCODING 8220
SWIDTH 368 0
DWIDTH 7 0
BBX 6 4 3 6
BITMAP
24
48
90
D8
ENDCHAR
STARTCHAR U+201D
ENCODING 8221
SWIDTH 368 0
DWIDTH 7 0
BBX 6 4 2 6
BITMAP
6C
24
48
90
ENDCHAR
STARTCHAR U+201E
ENCODING 8222
SWIDTH 368 0
DWIDTH 7 0
BBX 6 4 -1 -2
BITMAP
6C
24
48
90
ENDCHAR
STARTCHAR U+201F
ENCODING 8223
SWIDTH 368 0
DWIDTH 7 0
BBX 6 4 3 6
BITMAP
6C
48
90
90
ENDCHAR
STARTCHAR U+2020
ENCODING 8224
SWIDTH 368 0
DWIDTH 7 0
BBX 5 10 1 -1
BITMAP
08
08
10
78
20
20
40
40
80
80
ENDCHAR
STARTCHAR U+2021
ENCODING 8225
SWIDTH 368 0
DWIDTH 7 0
BBX 5 10 1 -1
BITMAP
08
08
10
78
20
20
F0
40
80
80
ENDCHAR
STARTCHAR U+2022
ENCODING 8226
SWIDTH 368 0
DWIDTH 7 0
BBX 3 4 3 3
BITMAP
60
E0
E0
C0
ENDCHAR
STARTCHAR U+2024
ENCODING 8228
SWIDTH 368 0
DWIDTH 7 0
BBX 1 2 2 0
BITMAP
80
80
ENDCHAR
STARTCHAR U+2025
ENCODING 8229
SWIDTH 368 0
DWIDTH 7 0
BBX 4 2 1 0
BITMAP
90
90
ENDCHAR
STARTCHAR U+2026
ENCODING 8230
SWIDTH 368 0
DWIDTH 7 0
BBX 5 2 0 0
BITMAP
A8
A8
ENDCHAR
STARTCHAR U+2030
ENCODING 8240
SWIDTH 368 0
DWIDTH 7 0
BBX 6 9 1 0
BITMAP
20
50
24
18
60
80
50
A8
50
ENDCHAR
STARTCHAR U+2039
ENCODING 8249
SWIDTH 368 0
DWIDTH 7 0
BBX 3 5 2 1
BITMAP
20
40
80
80
80
ENDCHAR
STARTCHAR U+203A
ENCODING 8250
SWIDTH 368 0
DWIDTH 7 0
BBX 3 5 2 1
BITMAP
20
20
20
40
80
ENDCHAR
STARTCHAR U+203B
ENCODING 8251
SWIDTH 368 0
DWIDTH 7 0
BBX 6 7 1 1
BITMAP
08
24
28
B4
50
90
40
ENDCHAR
STARTCHAR U+203D
ENCODING 8253
SWIDTH 368 0
DWIDTH 7 0
BBX 6 9 2 0
BITMAP
38
54
A4
28
70
40
00
80
80
ENDCHAR
STARTCHAR U+25CC
ENCODING 9676
SWIDTH 368 0
DWIDTH 7 0
BBX 7 7 0 1
BITMAP
08
22
00
82
00
88
20
ENDCHAR
STARTCHAR U+27E6
ENCODING 10214
SWIDTH 368 0
DWIDTH 7 0
BBX 10 11 -1 -1
BITMAP
07C0
0A00
0A00
1400
1400
2800
2800
5000
5000
A000
F800
ENDCHAR
STARTCHAR U+27E7
ENCODING 10215
SWIDTH 368 0
DWIDTH 7 0
BBX 10 11 -1 -1
BITMAP
07C0
0140
0280
0280
0500
0500
0A00
0A00
1400
1400
F800
ENDCHAR
STARTCHAR U+2801
ENCODING 10241
SWIDTH 368 0
DWIDTH 7 0
BBX 2 2 3 8
BITMAP
C0
C0
ENDCHAR
STARTCHAR U+2802
ENCODING 10242
SWIDTH 368 0
DWIDTH 7 0
BBX 2 2 1 4
BITMAP
C0
C0
ENDCHAR
STARTCHAR U+2803
ENCODING 10243
SWIDTH 368 0
DWIDTH 7 0
BBX 4 6 1 4
BITMAP
30
30
00
00
C0
C0
ENDCHAR
STARTCHAR U+2804
ENCODING 10244
SWIDTH 368 0
DWIDTH 7 0
BBX 2 2 -1 0
BITMAP
C0
C0
ENDCHAR
STARTCHAR U+2805
ENCODING 10245
SWIDTH 368 0
DWIDTH 7 0
BBX 6 10 -1 0
BITMAP
0C
0C
00
00
00
00
00
00
C0
C0
ENDCHAR
STARTCHAR U+2806
ENCODING 10246
SWIDTH 368 0
DWIDTH 7 0
BBX 4 6 -1 0
BITMAP
30
30
00
00
C0
C0
ENDCHAR
STARTCHAR U+2807
ENCODING 10247
SWIDTH 368 0
DWIDTH 7 0
BBX 6 10 -1 0
BITMAP
0C
0C
00
00
30
30
00
00
C0
C0
ENDCHAR
STARTCHAR U+2808
ENCODING 10248
SWIDTH 368 0
DWIDTH 7 0
BBX 2 2 7 8
BITMAP
C0
C0
ENDCHAR
STARTCHAR U+2809
ENCODING 10249
SWIDTH 368 0
DWIDTH 7 0
BBX 6 2 3 8
BITMAP
CC
CC
ENDCHAR
STARTCHAR U+280A
ENCODING 10250
SWIDTH 368 0
DWIDTH 7 0
BBX 8 6 1 4
BITMAP
03
03
00
00
C0
C0
ENDCHAR
STARTCHAR U+280B
ENCODING 10251
SWIDTH 368 0
DWIDTH 7 0
BBX 8 6 1 4
BITMAP
33
33
00
00
C0
C0
ENDCHAR
STARTCHAR U+280C
ENCODING 10252
SWIDTH 368 0
DWIDTH 7 0
BBX 10 10 -1 0
BITMAP
00C0
00C0
0000
0000
0000
0000
0000
0000
C000
C000
ENDCHAR
STARTCHAR U+280D
ENCODING 10253
SWIDTH 368 0
DWIDTH 7 0
BBX 10 10 -1 0
BITMAP
0CC0
0CC0
0000
0000
0000
0000
0000
0000
C000
C000
ENDCHAR
STARTCHAR U+280E
ENCODING 10254
SWIDTH 368 0
DWIDTH 7 0
BBX 10 10 -1 0
BITMAP
00C0
00C0
0000
0000
3000
3000
0000
0000
C000
C000
ENDCHAR
STARTCHAR U+280F
ENCODING 10255
SWIDTH 368 0
DWIDTH 7 0
BBX 10 10 -1 0
BITMAP
0CC0
0CC0
0000
0000
3000
3000
0000
0000
C000
C000
ENDCHAR
STARTCHAR U+2810
ENCODING 10256
SWIDTH 368 0
DWIDTH 7 0
BBX 2 2 5 4
BITMAP
C0
C0
ENDCHAR
STARTCHAR U+2811
ENCODING 10257
SWIDTH 368 0
DWIDTH 7 0
BBX 4 6 3 4
BITMAP
C0
C0
00
00
30
30
ENDCHAR
STARTCHAR U+2812
ENCODING 10258
SWIDTH 368 0
DWIDTH 7 0
BBX 6 2 1 4
BITMAP
CC
CC
ENDCHAR
STARTCHAR U+2813
ENCODING 10259
SWIDTH 368 0
DWIDTH 7 0
BBX 6 6 1 4
BITMAP
30
30
00
00
CC
CC
ENDCHAR
STARTCHAR U+2814
ENCODING 10260
SWIDTH 368 0
DWIDTH 7 0
BBX 8 6 -1 0
BITMAP
03
03
00
00
C0
C0
ENDCHAR
STARTCHAR U+2815
ENCODING 10261
SWIDTH 368 0
DWIDTH 7 0
BBX 8 10 -1 0
BITMAP
0C
0C
00
00
03
03
00
00
C0
C0
ENDCHAR
STARTCHAR U+2816
ENCODING 10262
SWIDTH 368 0
DWIDTH 7 0
BBX 8 6 -1 0
BITMAP
33
33
00
00
C0
C0
ENDCHAR
STARTCHAR U+2817
ENCODING 10263
SWIDTH 368 0
DWIDTH 7 0
BBX 8 10 -1 0
BITMAP
0C
0C
00
00
33
33
00
00
C0
C0
ENDCHAR
STARTCHAR U+2818
ENCODING 10264
SWIDTH 368 0
DWIDTH 7 0
BBX 4 6 5 4
BITMAP
30
30
00
00
C0
C0
ENDCHAR
STARTCHAR U+2819
ENCODING 10265
SWIDTH 368 0
DWIDTH 7 0
BBX 6 6 3 4
BITMAP
CC
CC
00
00
30
30
ENDCHAR
STARTCHAR U+281A
ENCODING 10266
SWIDTH 368 0
DWIDTH 7 0
BBX 8 6 1 4
BITMAP
03
03
00
00
CC
CC
ENDCHAR
STARTCHAR U+281B
ENCODING 10267
SWIDTH 368 0
DWIDTH 7 0
BBX 8 6 1 4
BITMAP
33
33
00
00
CC
CC
ENDCHAR
STARTCHAR U+281C
ENCODING 10268
SWIDTH 368 0
DWIDTH 7 0
BBX 10 10 -1 0
BITMAP
00C0
00C0
0000
0000
0300
0300
0000
0000
C000
C000
ENDCHAR
STARTCHAR U+281D
ENCODING 10269
SWIDTH 368 0
DWIDTH 7 0
BBX 10 10 -1 0
BITMAP
0CC0
0CC0
0000
0000
0300
0300
0000
0000
C000
C000
ENDCHAR
STARTCHAR U+281E
ENCODING 10270
SWIDTH 368 0
DWIDTH 7 0
BBX 10 10 -1 0
BITMAP
00C0
00C0
0000
0000
3300
3300
0000
0000
C000
C000
ENDCHAR
STARTCHAR U+281F
ENCODING 10271
SWIDTH 368 0
DWIDTH 7 0
BBX 10 10 -1 0
BITMAP
0CC0
0CC0
0000
0000
3300
3300
0000
0000
C000
C000
ENDCHAR
STARTCHAR U+2820
ENCODING 10272
SWIDTH 368 0
DWIDTH 7 0
BBX 2 2 3 0
BITMAP
C0
C0
ENDCHAR
STARTCHAR U+2821
ENCODING 10273
SWIDTH 368 0
DWIDTH 7 0
BBX 2 10 3 0
BITMAP
C0
C0
00
00
00
00
00
00
C0
C0
ENDCHAR
STARTCHAR U+2822
ENCODING 10274
SWIDTH 368 0
DWIDTH 7 0
BBX 4 6 1 0
BITMAP
C0
C0
00
00
30
30
ENDCHAR
STARTCHAR U+2823
ENCODING 10275
SWIDTH 368 0
DWIDTH 7 0
BBX 4 10 1 0
BITMAP
30
30
00
00
C0
C0
00
00
30
30
ENDCHAR
STARTCHAR U+2824
ENCODING 10276
SWIDTH 368 0
DWIDTH 7 0
BBX 6 2 -1 0
BITMAP
CC
CC
ENDCHAR
STARTCHAR U+2825
ENCODING 10277
SWIDTH 368 0
DWIDTH 7 0
BBX 6 10 -1 0
BITMAP
0C
0C
00
00
00
00
00
00
CC
CC
ENDCHAR
STARTCHAR U+2826
ENCODING 10278
SWIDTH 368 0
DWIDTH 7 0
BBX 6 6 -1 0
BITMAP
30
30
00
00
CC
CC
ENDCHAR
STARTCHAR U+2827
ENCODING 10279
SWIDTH 368 0
DWIDTH 7 0
BBX 6 10 -1 0
BITMAP
0C
0C
00
00
30
30
00
00
CC
CC
ENDCHAR
STARTCHAR U+2828
ENCODING 10280
SWIDTH 368 0
DWIDTH 7 0
BBX 6 10 3 0
BITMAP
0C
0C
00
00
00
00
00
00
C0
C0
ENDCHAR
STARTCHAR U+2829
ENCODING 10281
SWIDTH 368 0
DWIDTH 7 0
BBX 6 10 3 0
BITMAP
CC
CC
00
00
00
00
00
00
C0
C0
ENDCHAR
STARTCHAR U+282A
ENCODING 10282
SWIDTH 368 0
DWIDTH 7 0
BBX 8 10 1 0
BITMAP
03
03
00
00
C0
C0
00
00
30
30
ENDCHAR
STARTCHAR U+282B
ENCODING 10283
SWIDTH 368 0
DWIDTH 7 0
BBX 8 10 1 0
BITMAP
33
33
00
00
C0
C0
00
00
30
30
ENDCHAR
STARTCHAR U+282C
ENCODING 10284
SWIDTH 368 0
DWIDTH 7 0
BBX 10 10 -1 0
BITMAP
00C0
00C0
0000
0000
0000
0000
0000
0000
CC00
CC00
ENDCHAR
STARTCHAR U+282D
ENCODING 10285
SWIDTH 368 0
DWIDTH 7 0
BBX 10 10 -1 0
BITMAP
0CC0
0CC0
0000
0000
0000
0000
0000
0000
CC00
CC00
ENDCHAR
STARTCHAR U+282E
ENCODING 10286
SWIDTH 368 0
DWIDTH 7 0
BBX 10 10 -1 0
BITMAP
00C0
00C0
0000
0000
3000
3000
0000
0000
CC00
CC00
ENDCHAR
STARTCHAR U+282F
ENCODING 10287
SWIDTH 368 0
DWIDTH 7 0
BBX 10 10 -1 0
BITMAP
0CC0
0CC0
0000
0000
3000
3000
0000
0000
CC00
CC00
ENDCHAR
STARTCHAR U+2830
ENCODING 10288
SWIDTH 368 0
DWIDTH 7 0
BBX 4 6 3 0
BITMAP
30
30
00
00
C0
C0
ENDCHAR
STARTCHAR U+2831
ENCODING 10289
SWIDTH 368 0
DWIDTH 7 0
BBX 4 10 3 0
BITMAP
C0
C0
00
00
30
30
00
00
C0
C0
ENDCHAR
STARTCHAR U+2832
ENCODING 10290
SWIDTH 368 0
DWIDTH 7 0
BBX 6 6 1 0
BITMAP
CC
CC
00
00
30
30
ENDCHAR
STARTCHAR U+2833
ENCODING 10291
SWIDTH 368 0
DWIDTH 7 0
BBX 6 10 1 0
BITMAP
30
30
00
00
CC
CC
00
00
30
30
ENDCHAR
STARTCHAR U+2834
ENCODING 10292
SWIDTH 368 0
DWIDTH 7 0
BBX 8 6 -1 0
BITMAP
03
03
00
00
CC
CC
ENDCHAR
STARTCHAR U+2835
ENCODING 10293
SWIDTH 368 0
DWIDTH 7 0
BBX 8 10 -1 0
BITMAP
0C
0C
00
00
03
03
00
00
CC
CC
ENDCHAR
STARTCHAR U+2836
ENCODING 10294
SWIDTH 368 0
DWIDTH 7 0
BBX 8 6 -1 0
BITMAP
33
33
00
00
CC
CC
ENDCHAR
STARTCHAR U+2837
ENCODING 10295
SWIDTH 368 0
DWIDTH 7 0
BBX 8 10 -1 0
BITMAP
0C
0C
00
00
33
33
00
00
CC
CC
ENDCHAR
STARTCHAR U+2838
ENCODING 10296
SWIDTH 368 0
DWIDTH 7 0
BBX 6 10 3 0
BITMAP
0C
0C
00
00
30
30
00
00
C0
C0
ENDCHAR
STARTCHAR U+2839
ENCODING 10297
SWIDTH 368 0
DWIDTH 7 0
BBX 6 10 3 0
BITMAP
CC
CC
00
00
30
30
00
00
C0
C0
ENDCHAR
STARTCHAR U+283A
ENCODING 10298
SWIDTH 368 0
DWIDTH 7 0
BBX 8 10 1 0
BITMAP
03
03
00
00
CC
CC
00
00
30
30
ENDCHAR
STARTCHAR U+283B
ENCODING 10299
SWIDTH 368 0
DWIDTH 7 0
BBX 8 10 1 0
BITMAP
33
33
00
00
CC
CC
00
00
30
30
ENDCHAR
STARTCHAR U+283C
ENCODING 10300
SWIDTH 368 0
DWIDTH 7 0
BBX 10 10 -1 0
BITMAP
00C0
00C0
0000
0000
0300
0300
0000
0000
CC00
CC00
ENDCHAR
STARTCHAR U+283D
ENCODING 10301
SWIDTH 368 0
DWIDTH 7 0
BBX 10 10 -1 0
BITMAP
0CC0
0CC0
0000
0000
0300
0300
0000
0000
CC00
CC00
ENDCHAR
STARTCHAR U+283E
ENCODING 10302
SWIDTH 368 0
DWIDTH 7 0
BBX 10 10 -1 0
BITMAP
00C0
00C0
0000
0000
3300
3300
0000
0000
CC00
CC00
ENDCHAR
STARTCHAR U+283F
ENCODING 10303
SWIDTH 368 0
DWIDTH 7 0
BBX 10 10 -1 0
BITMAP
0CC0
0CC0
0000
0000
3300
3300
0000
0000
CC00
CC00
ENDCHAR
STARTCHAR U+2E28
ENCODING 11816
SWIDTH 368 0
DWIDTH 7 0
BBX 9 11 0 -1
BITMAP
0480
0900
1200
2400
4800
4800
9000
9000
9000
9000
4800
ENDCHAR
STARTCHAR U+2E29
ENCODING 11817
SWIDTH 368 0
DWIDTH 7 0
BBX 9 11 -1 -1
BITMAP
0900
0480
0480
0480
0480
0900
0900
1200
2400
4800
9000
ENDCHAR
STARTCHAR bounding
ENCODING -1
SWIDTH 368 0
DWIDTH 7 0
BBX 16 17 -4 -4
BITMAP
01FF
0101
0202
0202
0404
0404
0808
0808
1010
1010
2020
2020
4040
4040
8080
8080
FF80
ENDCHAR
ENDFONT
